<svg xmlns="http://www.w3.org/2000/svg" width="64" height="64" viewBox="0 0 64 64">
  <!-- Background -->
  <circle cx="32" cy="32" r="32" fill="#3B82F6"/>
  <!-- Shirt/body -->
  <ellipse cx="32" cy="58" rx="18" ry="10" fill="#1D4ED8"/>
  <rect x="20" y="48" width="24" height="16" rx="4" fill="#1D4ED8"/>
  <!-- Neck -->
  <rect x="28" y="42" width="8" height="8" fill="#F9C784"/>
  <!-- Head -->
  <ellipse cx="32" cy="34" rx="12" ry="13" fill="#F9C784"/>
  <!-- Hair -->
  <ellipse cx="32" cy="23" rx="12" ry="6" fill="#2D1B00"/>
  <rect x="20" y="23" width="24" height="8" fill="#2D1B00"/>
  <!-- Eyes -->
  <circle cx="27" cy="32" r="1.8" fill="#1a1a1a"/>
  <circle cx="37" cy="32" r="1.8" fill="#1a1a1a"/>
  <!-- Eye shine -->
  <circle cx="27.7" cy="31.3" r="0.5" fill="white"/>
  <circle cx="37.7" cy="31.3" r="0.5" fill="white"/>
  <!-- Nose -->
  <ellipse cx="32" cy="36" rx="1.5" ry="1" fill="#e8a96a"/>
  <!-- Mouth -->
  <path d="M28 39.5 Q32 42 36 39.5" fill="none" stroke="#c0714a" stroke-width="1.2" stroke-linecap="round"/>
  <!-- Eyebrows -->
  <path d="M24.5 28.5 Q27 27.5 29.5 28.5" fill="none" stroke="#2D1B00" stroke-width="1.2" stroke-linecap="round"/>
  <path d="M34.5 28.5 Q37 27.5 39.5 28.5" fill="none" stroke="#2D1B00" stroke-width="1.2" stroke-linecap="round"/>
</svg>