<svg xmlns="http://www.w3.org/2000/svg" width="64" height="64" viewBox="0 0 64 64">
  <!-- Background -->
  <circle cx="32" cy="32" r="32" fill="#6366F1"/>
  <!-- Shirt/body -->
  <rect x="20" y="48" width="24" height="16" rx="4" fill="#3730A3"/>
  <!-- Neck -->
  <rect x="28" y="42" width="8" height="8" fill="#F5C99A"/>
  <!-- Head -->
  <ellipse cx="32" cy="34" rx="12" ry="13" fill="#F5C99A"/>
  <!-- Hair - black neat -->
  <ellipse cx="32" cy="23" rx="12" ry="6" fill="#111111"/>
  <rect x="20" y="22" width="24" height="8" fill="#111111"/>
  <!-- Side part -->
  <path d="M30 21 L30 26" stroke="#333" stroke-width="1" fill="none"/>
  <!-- Eyes -->
  <circle cx="27" cy="32" r="1.8" fill="#1a1a1a"/>
  <circle cx="37" cy="32" r="1.8" fill="#1a1a1a"/>
  <circle cx="27.7" cy="31.3" r="0.5" fill="white"/>
  <circle cx="37.7" cy="31.3" r="0.5" fill="white"/>
  <!-- Nose -->
  <ellipse cx="32" cy="36" rx="1.5" ry="1" fill="#d9a06a"/>
  <!-- Mouth - slight smile -->
  <path d="M29 39.5 Q32 41.5 35 39.5" fill="none" stroke="#b07040" stroke-width="1.2" stroke-linecap="round"/>
  <!-- Eyebrows -->
  <path d="M24.5 28.5 Q27 27.5 29.5 28.5" fill="none" stroke="#111111" stroke-width="1.3" stroke-linecap="round"/>
  <path d="M34.5 28.5 Q37 27.5 39.5 28.5" fill="none" stroke="#111111" stroke-width="1.3" stroke-linecap="round"/>
</svg>