<svg xmlns="http://www.w3.org/2000/svg" width="64" height="64" viewBox="0 0 64 64">
  <!-- Background -->
  <circle cx="32" cy="32" r="32" fill="#F59E0B"/>
  <!-- Shirt/body -->
  <rect x="20" y="48" width="24" height="16" rx="4" fill="#92400E"/>
  <!-- Neck -->
  <rect x="28" y="42" width="8" height="8" fill="#D4A76A"/>
  <!-- Head -->
  <ellipse cx="32" cy="34" rx="12" ry="13" fill="#D4A76A"/>
  <!-- Hair - medium brown slightly wavy -->
  <ellipse cx="32" cy="23" rx="12" ry="7" fill="#4A2C0A"/>
  <rect x="20" y="22" width="24" height="8" fill="#4A2C0A"/>
  <!-- Glasses -->
  <circle cx="27" cy="32" r="4" fill="none" stroke="#4A4A4A" stroke-width="1.2"/>
  <circle cx="37" cy="32" r="4" fill="none" stroke="#4A4A4A" stroke-width="1.2"/>
  <line x1="31" y1="32" x2="33" y2="32" stroke="#4A4A4A" stroke-width="1.2"/>
  <line x1="23" y1="32" x2="20" y2="30" stroke="#4A4A4A" stroke-width="1.2"/>
  <line x1="41" y1="32" x2="44" y2="30" stroke="#4A4A4A" stroke-width="1.2"/>
  <!-- Eyes -->
  <circle cx="27" cy="32" r="1.5" fill="#3B2800"/>
  <circle cx="37" cy="32" r="1.5" fill="#3B2800"/>
  <circle cx="27.6" cy="31.4" r="0.4" fill="white"/>
  <circle cx="37.6" cy="31.4" r="0.4" fill="white"/>
  <!-- Nose -->
  <ellipse cx="32" cy="36" rx="1.5" ry="1" fill="#b8854d"/>
  <!-- Mouth -->
  <path d="M28.5 40 Q32 42 35.5 40" fill="none" stroke="#9a5f30" stroke-width="1.2" stroke-linecap="round"/>
  <!-- Eyebrows -->
  <path d="M24.5 28 Q27 27 29.5 28" fill="none" stroke="#4A2C0A" stroke-width="1.2" stroke-linecap="round"/>
  <path d="M34.5 28 Q37 27 39.5 28" fill="none" stroke="#4A2C0A" stroke-width="1.2" stroke-linecap="round"/>
</svg>